name rise30.9205peak61.366fall85.3838.mot
datacolumns 19
datarows 11
range 12.51995400000000 12.53662000000000
endheader
time	ground_force1_vx	ground_force1_vy	ground_force1_vz	ground_force1_px	ground_force1_py	ground_force1_pz	ground_force2_vx	ground_force2_vy	ground_force2_vz	ground_force2_px	ground_force2_py	ground_force2_pz	ground_torque1_x	ground_torque1_y	ground_torque1_z	ground_torque2_x	ground_torque2_y	ground_torque2_z	
12.51995400000000	-7.41288100000000	40.38438100000000	-6.31314000000000	0.31677200000000	0.00000000000000	0.09764500000000	-50.62374900000000	763.50100799999996	-52.23515200000000	0.12063300000000	0.00000000000000	-0.09190100000000	0.00000000000000	-3.80303800000000	0.00000000000000	0.00000000000000	-19.90520600000000	0.00000000000000	
12.52164900000000	-8.04276600000000	47.50476500000000	-7.05983500000000	0.32412700000000	0.00000000000000	0.09848000000000	-51.26679700000000	760.59342800000002	-51.83958400000000	0.11993000000000	0.00000000000000	-0.09175500000000	0.00000000000000	-4.33497000000000	0.00000000000000	0.00000000000000	-19.85543600000000	0.00000000000000	
12.52329200000000	-8.50970900000000	54.76135700000000	-7.72338900000000	0.33067200000000	0.00000000000000	0.09922600000000	-51.92868100000000	757.59712200000001	-51.43346900000000	0.11922600000000	0.00000000000000	-0.09160700000000	0.00000000000000	-4.83113600000000	0.00000000000000	0.00000000000000	-19.80924000000000	0.00000000000000	
12.52495300000000	-8.79368600000000	62.06495600000000	-8.28669500000000	0.33653200000000	0.00000000000000	0.09989700000000	-52.60855000000000	754.50940100000003	-51.01647000000000	0.11852300000000	0.00000000000000	-0.09145700000000	0.00000000000000	-5.27953700000000	0.00000000000000	0.00000000000000	-19.76645200000000	0.00000000000000	
12.52662800000000	-8.88361100000000	69.34723800000000	-8.73855000000000	0.34180900000000	0.00000000000000	0.10050600000000	-53.30544500000000	751.32746799999995	-50.58824900000000	0.11782100000000	0.00000000000000	-0.09130500000000	0.00000000000000	-5.67162900000000	0.00000000000000	0.00000000000000	-19.72688600000000	0.00000000000000	
12.52828500000000	-8.77711000000000	76.56300899999999	-9.07370400000000	0.34658300000000	0.00000000000000	0.10106200000000	-54.01830500000000	748.04842699999995	-50.14846500000000	0.11711900000000	0.00000000000000	-0.09115200000000	0.00000000000000	-6.00248500000000	0.00000000000000	0.00000000000000	-19.69033500000000	0.00000000000000	
12.52995600000000	-8.47961600000000	83.69019400000001	-9.29240300000000	0.35092200000000	0.00000000000000	0.10157300000000	-54.74596500000000	744.66929200000004	-49.69678000000000	0.11641800000000	0.00000000000000	-0.09099800000000	0.00000000000000	-6.27063500000000	0.00000000000000	0.00000000000000	-19.65657300000000	0.00000000000000	
12.53163100000000	-8.00298300000000	90.72790600000000	-9.39957300000000	0.35487900000000	0.00000000000000	0.10204500000000	-55.48715500000000	741.18699500000002	-49.23286100000000	0.11571800000000	0.00000000000000	-0.09084200000000	0.00000000000000	-6.47763900000000	0.00000000000000	0.00000000000000	-19.62535400000000	0.00000000000000	
12.53329800000000	-7.36381500000000	97.69311399999999	-9.40375600000000	0.35850000000000	0.00000000000000	0.10248300000000	-56.24050400000000	737.59839999999997	-48.75638200000000	0.11501800000000	0.00000000000000	-0.09068400000000	0.00000000000000	-6.62749100000000	0.00000000000000	0.00000000000000	-19.59641200000000	0.00000000000000	
12.53495400000000	-6.58168500000000	104.61641100000000	-9.31593000000000	0.36182200000000	0.00000000000000	0.10289100000000	-57.00454100000000	733.90031499999998	-48.26702700000000	0.11432000000000	0.00000000000000	-0.09052500000000	0.00000000000000	-6.72592000000000	0.00000000000000	0.00000000000000	-19.56946300000000	0.00000000000000	
12.53662000000000	-5.67742400000000	111.53740100000000	-9.14834600000000	0.36487800000000	0.00000000000000	0.10327300000000	-57.77769500000000	730.08950000000004	-47.76449100000000	0.11362400000000	0.00000000000000	-0.09036500000000	0.00000000000000	-6.77966900000000	0.00000000000000	0.00000000000000	-19.54420700000000	0.00000000000000	
